<svg width="63" height="63" viewBox="0 0 63 63" fill="none" xmlns="http://www.w3.org/2000/svg">
<path d="M0 20C0 18.1362 0 17.2044 0.304482 16.4693C0.710458 15.4892 1.48915 14.7105 2.46927 14.3045C3.20435 14 4.13623 14 6 14V14V50H0V20Z" fill="white"/>
<path d="M57 14V14C58.8638 14 59.7956 14 60.5307 14.3045C61.5108 14.7105 62.2895 15.4892 62.6955 16.4693C63 17.2044 63 18.1362 63 20V50H57V14Z" fill="white"/>
<rect x="57" y="14" width="6" height="51" transform="rotate(90 57 14)" fill="white"/>
<rect x="6" y="24" width="51" height="1" fill="white"/>
<rect x="6" y="31" width="51" height="1" fill="white"/>
<rect x="6" y="38" width="51" height="1" fill="white"/>
<rect x="6" y="45" width="51" height="1" fill="white"/>
<rect x="25" y="20" width="26" height="0.999998" transform="rotate(90 25 20)" fill="white"/>
<rect x="32" y="20" width="26" height="0.999998" transform="rotate(90 32 20)" fill="white"/>
<rect x="18" y="20" width="26" height="0.999998" transform="rotate(90 18 20)" fill="white"/>
<rect x="11" y="20" width="26" height="0.999998" transform="rotate(90 11 20)" fill="white"/>
<rect x="53" y="20" width="26" height="0.999998" transform="rotate(90 53 20)" fill="white"/>
<rect x="46" y="20" width="26" height="0.999998" transform="rotate(90 46 20)" fill="white"/>
<rect x="39" y="20" width="26" height="0.999998" transform="rotate(90 39 20)" fill="white"/>
<rect x="26.5" y="35" width="10" height="20" rx="4" fill="#FFD000"/>
<circle cx="31.5" cy="31" r="4" fill="#FFD000"/>
</svg>
