<?xml version="1.0" encoding="UTF-8"?>
<svg xmlns="http://www.w3.org/2000/svg" width="194" height="194" viewBox="0 0 194 194">
  <circle fill="#000000" cx="97" cy="97" r="97" />
  <path fill="#ffffff" d="M94 9.2a88 88 0 0 0-55 21.8h27l28-14.4V9.2Zm6 0v7.4l28 14.4h27A88 88 0 0 0 100 9.2Zm-67.2 27.8a88 88 0 0 0-20 34.2l16 27.6 23-3.6 21-36.2-8.4-22H32.8Zm96.8 0-8.4 22 21 36.2 23 3.6 15.8-27.4a88 88 0 0 0-19.8-34.4H130Zm-50 26-20.2 35.2 17.8 30.8h39.6l17.8-30.8L114.8 63h-34.8Zm-68.8 16.6a88 88 0 0 0-1.8 17.4 88 88 0 0 0 10.4 41.4l7.4-4.4-1.4-29-14.6-25.4Zm172.4.2-14.6 25.2-1.4 29 7.4 4.4a88 88 0 0 0 10.4-41.4 88 88 0 0 0-1.8-17.2Zm-106 57.2-15.4 19 15.4 26.6a88 88 0 0 0 19.8 2.4 88 88 0 0 0 19.8-2.4l15.4-26.6-15.4-19h-39.6Zm-47.8 2.6-7 4A88 88 0 0 0 68.8 180.4l-14-24.6-25.4-16.2Zm135.2 0-25.4 16.2-14 24.4a88 88 0 0 0 46.4-36.6l-7-4Z"/>
</svg>
